<?xml version="1.0" encoding="UTF-8"?>
<svg xmlns="http://www.w3.org/2000/svg" xmlns:xlink="http://www.w3.org/1999/xlink" width="331.11pt" height="365pt" viewBox="0 0 331.11 365" version="1.1">
<defs>
<clipPath id="clip1">
  <path d="M 0 0 L 331.109375 0 L 331.109375 365 L 0 365 Z M 0 0 "/>
</clipPath>
</defs>
<g id="surface1">
<g clip-path="url(#clip1)" clip-rule="nonzero">
<path style=" stroke:none;fill-rule:nonzero;fill:rgb(100%,100%,100%);fill-opacity:1;" d="M 331.113281 86.535156 L 331.113281 0.015625 L 210.015625 0.015625 C 210.015625 0.015625 210.398438 135.742188 210.507813 177.707031 C 191.203125 138.796875 122.328125 0.015625 122.328125 0.015625 L 64.8125 0.015625 L 64.867188 0.121094 L 0 0 L 0 86.535156 L 22.949219 86.535156 L 22.949219 278.363281 L 0 278.363281 L 0 364.875 L 120.578125 364.875 L 120.578125 188.476563 C 139.773438 227.082031 208.332031 365 208.332031 365 L 269.351563 365 L 269.320313 364.9375 L 331.113281 364.871094 L 331.113281 278.363281 L 308.171875 278.363281 L 308.171875 86.535156 L 331.113281 86.535156 "/>
</g>
<path style=" stroke:none;fill-rule:nonzero;fill:rgb(0.799561%,0.799561%,0.799561%);fill-opacity:1;" d="M 75.769531 6.710938 L 118.191406 6.710938 L 217.246094 206.300781 L 216.691406 6.710938 L 324.449219 6.710938 L 324.449219 79.914063 L 301.507813 79.914063 L 301.507813 285.050781 L 324.449219 285.050781 L 324.449219 358.25 L 258.414063 358.324219 L 75.769531 6.710938 "/>
<path style=" stroke:none;fill-rule:nonzero;fill:rgb(79.598999%,12.5%,14.898682%);fill-opacity:1;" d="M 258.402344 358.363281 L 212.46875 358.363281 L 113.925781 160.144531 L 113.925781 358.242188 L 6.667969 358.242188 L 6.667969 285.042969 L 29.617188 285.042969 L 29.617188 79.898438 L 6.667969 79.898438 L 6.667969 6.703125 L 75.90625 6.828125 L 258.402344 358.363281 "/>
</g>
</svg>
